<svg id="blog" xmlns="http://www.w3.org/2000/svg" width="20" height="20" viewBox="0 0 20 20">
  <path id="Caminho_43346" data-name="Caminho 43346" d="M21.025,2.975A3.337,3.337,0,0,0,18.669,2H5.331A3.331,3.331,0,0,0,2,5.331V18.669A3.331,3.331,0,0,0,5.331,22H18.669A3.331,3.331,0,0,0,22,18.669V5.331a3.337,3.337,0,0,0-.975-2.356ZM3.919,3.919a1.994,1.994,0,0,1,1.413-.588H18.669a2.006,2.006,0,0,1,2,2v3H3.331v-3a2.006,2.006,0,0,1,.588-1.413ZM20.081,20.081a1.994,1.994,0,0,1-1.413.587H5.331a2.006,2.006,0,0,1-2-2v-9H20.669v9a2.006,2.006,0,0,1-.587,1.413Z" transform="translate(-2 -2)" fill="#fff"/>
  <path id="Caminho_43347" data-name="Caminho 43347" d="M27.2,7.6a.669.669,0,1,0-.669-.669A.669.669,0,0,0,27.2,7.6Z" transform="translate(-11.199 -3.598)" fill="#fff"/>
  <path id="Caminho_43348" data-name="Caminho 43348" d="M22.967,7.6a.669.669,0,1,0-.6-.666A.669.669,0,0,0,22.967,7.6Z" transform="translate(-9.637 -3.6)" fill="#fff"/>
  <path id="Caminho_43349" data-name="Caminho 43349" d="M7.96,7.6h2.669a.669.669,0,0,0,0-1.331H7.96a.669.669,0,1,0,0,1.331Z" transform="translate(-3.961 -3.6)" fill="#fff"/>
  <g id="Grupo_69199" data-name="Grupo 69199" transform="translate(-2 -2)">
    <path id="Caminho_43350" data-name="Caminho 43350" d="M12.783,15.87H7.877a.568.568,0,0,0-.386.144.477.477,0,0,0-.16.353v5a.526.526,0,0,0,.547.5h4.906a.526.526,0,0,0,.547-.5v-5a.477.477,0,0,0-.16-.353.568.568,0,0,0-.386-.144Zm-.547,5H8.424v-4h3.813Z" transform="translate(-0.998 -4.201)" fill="#fff"/>
    <path id="Caminho_43351" data-name="Caminho 43351" d="M25.2,16.93H21.869a.669.669,0,1,0,0,1.337H25.2a.669.669,0,0,0,0-1.338Z" transform="translate(-7.199 -4.599)" fill="#fff"/>
    <path id="Caminho_43353" data-name="Caminho 43353" d="M25.161,25.468H21.83a.669.669,0,1,0,0,1.331h3.331a.669.669,0,1,0,0-1.331Z" transform="translate(-7.162 -9.799)" fill="#fff"/>
  </g>
</svg>
