<svg id="ic-api" xmlns="http://www.w3.org/2000/svg" width="36" height="36" viewBox="0 0 36 36">
  <path id="api" d="M37.46,2.54a1.74,1.74,0,0,0-2.52,0L31.52,5.96c-4.14-2.7-9.18-.72-10.98,1.08l-2.7,2.7a1.74,1.74,0,0,0,0,2.52l9.9,9.9a1.74,1.74,0,0,0,2.52,0l2.7-2.7c1.8-1.8,3.78-6.84,1.08-10.98l3.42-3.42a1.74,1.74,0,0,0,0-2.52Zm-7.02,14.4L29,18.38,21.62,11l1.44-1.44c.72-.72,4.68-2.7,7.38,0S31.16,16.22,30.44,16.94Zm-9,5.4L19.1,24.68,15.32,20.9l2.34-2.34a1.782,1.782,0,0,0-2.52-2.52L12.8,18.38l-.54-.54a1.74,1.74,0,0,0-2.52,0l-2.7,2.7c-1.8,1.8-3.78,6.84-1.08,10.98L2.54,34.94a1.74,1.74,0,0,0,0,2.52A1.634,1.634,0,0,0,3.8,38a1.634,1.634,0,0,0,1.26-.54l3.42-3.42a8.549,8.549,0,0,0,4.5,1.26,9.737,9.737,0,0,0,6.48-2.52l2.7-2.7a1.74,1.74,0,0,0,0-2.52l-.54-.36,2.34-2.34a1.782,1.782,0,0,0-2.52-2.52Zm-4.5,8.1c-.72.72-4.68,2.7-7.38,0s-.72-6.66,0-7.38L11,21.62,18.38,29Z" transform="translate(-2 -2)" fill="#3035d1"/>
</svg>
