<svg id="ic-ACAM" xmlns="http://www.w3.org/2000/svg" width="33.384" height="30.999" viewBox="0 0 33.384 30.999">
  <path id="search-folder" d="M45.929,42.792a6.293,6.293,0,0,0-.776-8.049,6.46,6.46,0,0,0-9.048,0,6.3,6.3,0,0,0,0,8.978,6.459,6.459,0,0,0,8.129.748l1.926,1.9a1.192,1.192,0,1,0,1.676-1.7Zm-8.148-.767a3.913,3.913,0,0,1,0-5.586,4.068,4.068,0,0,1,5.7,0,3.913,3.913,0,0,1,0,5.586,4.068,4.068,0,0,1-5.7,0Zm10.6-16.468a4.145,4.145,0,0,0-4.158-4.122H31.277l-2.879-3.5a1.192,1.192,0,0,0-.921-.435H19.158A4.145,4.145,0,0,0,15,21.622V31.892a1.182,1.182,0,0,0,.018.181c-.01.118-.018.236-.018.357V44.377A4.145,4.145,0,0,0,19.158,48.5H33.623a1.192,1.192,0,0,0,0-2.385H19.158a1.757,1.757,0,0,1-1.773-1.737V32.43a1.757,1.757,0,0,1,1.773-1.737H44.226A1.757,1.757,0,0,1,46,32.43a1.192,1.192,0,0,0,2.385,0c0-.12-.008-.239-.018-.357a1.182,1.182,0,0,0,.018-.181V25.557Zm-4.158,2.751H19.158a4.155,4.155,0,0,0-1.773.4V21.622a1.757,1.757,0,0,1,1.773-1.737h7.756l2.879,3.5a1.192,1.192,0,0,0,.921.435H44.226A1.757,1.757,0,0,1,46,25.557v3.15a4.154,4.154,0,0,0-1.773-.4Z" transform="translate(-15 -17.5)" fill="#3035d1"/>
</svg>
