<svg id="ic-cambio-pronto" xmlns="http://www.w3.org/2000/svg" width="36" height="35.998" viewBox="0 0 36 35.998">
  <path id="stock-exchange-app" d="M36,17.874v6.258a1.406,1.406,0,0,1-2.812,0V21.354l-4.475,4.475a1.406,1.406,0,0,1-.994.412h-7.1L11.26,35.6a1.406,1.406,0,1,1-1.989-1.989l9.773-9.773a1.406,1.406,0,0,1,.994-.412h7.1l4.148-4.148H28.265a1.406,1.406,0,0,1,0-2.812h6.328A1.406,1.406,0,0,1,36,17.874ZM34.593,28.351a1.406,1.406,0,0,0-1.406,1.406v4.851a1.406,1.406,0,0,0,2.812,0V29.757A1.406,1.406,0,0,0,34.593,28.351Zm-5.625,0a1.406,1.406,0,0,0-1.406,1.406v4.851a1.406,1.406,0,0,0,2.812,0V29.757A1.406,1.406,0,0,0,28.969,28.351Zm-5.625,0a1.406,1.406,0,0,0-1.406,1.406v4.851a1.406,1.406,0,0,0,2.812,0V29.757A1.406,1.406,0,0,0,23.344,28.351Zm-5.625,4.289a1.406,1.406,0,0,0-1.406,1.406v.562a1.406,1.406,0,0,0,2.812,0v-.562A1.406,1.406,0,0,0,17.719,32.639Zm-2.883-8.789a1.406,1.406,0,0,0,1.406-1.406v-.864a4.229,4.229,0,0,0-1.406-8.206,1.4,1.4,0,0,1,0-2.8,1.293,1.293,0,0,1,1.237.821,1.406,1.406,0,0,0,2.589-1.1A4.1,4.1,0,0,0,16.242,8v-.95a1.406,1.406,0,0,0-2.812,0V8a4.217,4.217,0,0,0,1.406,8.186,1.411,1.411,0,0,1,0,2.822,1.5,1.5,0,0,1-1.319-.868,1.406,1.406,0,0,0-2.565,1.153,4.346,4.346,0,0,0,2.478,2.278v.872a1.406,1.406,0,0,0,1.406,1.406ZM9.984,28.665a1.406,1.406,0,0,0,.5-2.72C-1.755,21,1.533,3.048,14.766,2.828A11.925,11.925,0,0,1,26.539,12.7a1.406,1.406,0,1,0,2.77-.485,14.782,14.782,0,0,0-5-8.7C14.833-4.586-.042,2.3,0,14.781A14.819,14.819,0,0,0,9.481,28.572a1.4,1.4,0,0,0,.5.094Z" transform="translate(0 -0.017)" fill="#3035d1"/>
</svg>
