<svg id="ic-carga" xmlns="http://www.w3.org/2000/svg" width="40" height="32.852" viewBox="0 0 40 32.852">
  <path id="Caminho_43344" data-name="Caminho 43344" d="M38.828,71.568H35.944l1.99-7.958A1.172,1.172,0,0,0,36.8,62.155H34.063v-8.2a1.172,1.172,0,0,0-1.172-1.172H18.829a1.172,1.172,0,0,0-1.172,1.172v8.2H15.313v-8.2a1.172,1.172,0,0,0-1.172-1.172h-.588V49.264a1.172,1.172,0,0,0-1.172-1.172H11.209V46.92a1.172,1.172,0,0,0-2.344,0v1.172H7.693a1.172,1.172,0,0,0-1.172,1.172v3.516H5.933a1.172,1.172,0,0,0-1.172,1.172v3.516H3.2a1.172,1.172,0,0,0-1.172,1.172V65.67a1.171,1.171,0,0,0,.06.371l1.843,5.527H1.172a1.172,1.172,0,1,0,0,2.344H38.828a1.172,1.172,0,0,0,0-2.344ZM20,55.123H31.719v2.344H20Zm0,4.688H31.719v2.344H20ZM8.865,50.436h2.344v2.344H8.865ZM7.1,55.123h5.864v7.032H10.625V58.639a1.172,1.172,0,0,0-1.172-1.172H7.1V55.123ZM33.529,71.568H6.4L4.375,65.48V59.811H8.281v3.516A1.172,1.172,0,0,0,9.453,64.5H35.3Z" transform="translate(0 -45.748)" fill="#3035d1"/>
  <path id="Caminho_43345" data-name="Caminho 43345" d="M89.458,436.252H61.178a1.172,1.172,0,1,0,0,2.344h28.28a1.172,1.172,0,0,0,0-2.344Z" transform="translate(-55.318 -405.744)" fill="#3035d1"/>
  <circle id="Elipse_14" data-name="Elipse 14" cx="1.172" cy="1.172" r="1.172" transform="translate(19.947 21.113)" fill="#3035d1"/>
  <circle id="Elipse_15" data-name="Elipse 15" cx="1.172" cy="1.172" r="1.172" transform="translate(24.635 21.113)" fill="#3035d1"/>
  <circle id="Elipse_16" data-name="Elipse 16" cx="1.172" cy="1.172" r="1.172" transform="translate(29.322 21.113)" fill="#3035d1"/>
</svg>
