<svg id="ic-cambio-fiat" xmlns="http://www.w3.org/2000/svg" width="36" height="35.999" viewBox="0 0 36 35.999">
  <path id="Caminho_43336" data-name="Caminho 43336" d="M81.574,175.316l-2.012.661a15.887,15.887,0,0,1-25.893,16.611h3.037V190.47H50v6.353h2.118v-2.8a18.123,18.123,0,0,0,4.287,3.009,18.011,18.011,0,0,0,25.169-21.721Z" transform="translate(-46.471 -162.941)" fill="#3035d1"/>
  <path id="Caminho_43337" data-name="Caminho 43337" d="M18,2.118A15.831,15.831,0,0,1,28.8,6.353H25.765V8.471h6.706V2.118H30.353V4.909A18.005,18.005,0,0,0,1.024,24l2-.706A15.894,15.894,0,0,1,18,2.118Z" fill="#3035d1"/>
  <path id="Caminho_43338" data-name="Caminho 43338" d="M188.471,112.059h2.118a4.948,4.948,0,0,0-4.235-4.89V105h-2.118v2.169a4.948,4.948,0,0,0-4.235,4.89,4.217,4.217,0,0,0,3.2,4.1l1.037.259v5.437a2.829,2.829,0,0,1-2.118-2.734H180a4.948,4.948,0,0,0,4.235,4.89v2.169h2.118v-2.169a4.948,4.948,0,0,0,4.235-4.89,4.217,4.217,0,0,0-3.2-4.1l-1.037-.259v-5.437A2.829,2.829,0,0,1,188.471,112.059Zm-1.595,5.016a2.1,2.1,0,0,1,1.595,2.043,2.829,2.829,0,0,1-2.118,2.734v-4.907Zm-3.163-2.974a2.1,2.1,0,0,1-1.595-2.043,2.829,2.829,0,0,1,2.118-2.734v4.907Z" transform="translate(-167.295 -97.588)" fill="#3035d1"/>
</svg>
