<svg id="ic-consult-cambial" xmlns="http://www.w3.org/2000/svg" width="36" height="36.219" viewBox="0 0 36 36.219">
  <path id="support" d="M5.823,11.316H4.073A.077.077,0,0,0,4,11.389v4.883a.076.076,0,0,0,.073.073H5.823Zm20.55-2.186h1.749a2.263,2.263,0,0,1,2.259,2.259v4.883a2.263,2.263,0,0,1-2.259,2.259H25.1A13.534,13.534,0,0,1,21.563,22.2a3.065,3.065,0,0,0,3.061,3.185c5.229,0,9.474,1.379,9.474,7.724a1.093,1.093,0,1,1-2.186,0c0-5.09-3.374-5.538-7.287-5.538a5.211,5.211,0,0,1-2.409-.587l-5.839,4.228a1.092,1.092,0,0,1-1.3.013L9.515,27.192a5.209,5.209,0,0,1-1.944.374c-3.913,0-7.287.448-7.287,5.538A1.093,1.093,0,0,1-.809,34.2,1.093,1.093,0,0,1-1.9,33.1c0-6.346,4.245-7.724,9.474-7.724a3.07,3.07,0,0,0,3.052-2.833A12.468,12.468,0,0,1,6.67,18.53h-2.6a2.263,2.263,0,0,1-2.259-2.259V11.389A2.263,2.263,0,0,1,4.073,9.129H5.823V7.57a9.564,9.564,0,0,1,9.49-9.59h1.571a9.565,9.565,0,0,1,9.49,9.59Zm-2.186,7.216V9.259a10.979,10.979,0,0,1-8.276-2.322A10.966,10.966,0,0,1,8.009,9.3v6.907a8.438,8.438,0,0,0,2.957,3.9,9.825,9.825,0,0,0,5,2.264c1.143,0,3.458-1.065,5.4-2.8a11.78,11.78,0,0,0,1.028-1.037H19.012a1.822,1.822,0,1,1,0-2.186h5.174Zm3.935-5.029H26.373v5.028h1.749a.076.076,0,0,0,.073-.073V11.389a.076.076,0,0,0-.073-.073ZM24.169,7.059a7.422,7.422,0,0,0-4.4-6.291A10.881,10.881,0,0,1,17.485,5.4a8.826,8.826,0,0,0,6.684,1.661ZM17.655.207a7.268,7.268,0,0,0-.772-.041H15.312A7.357,7.357,0,0,0,8.023,7.109a8.819,8.819,0,0,0,9.632-6.9ZM11.422,25.878l4.3,3.11,4.766-3.451a5.237,5.237,0,0,1-.982-2.08,8.708,8.708,0,0,1-3.538,1.1,8.729,8.729,0,0,1-3.32-.894,5.251,5.251,0,0,1-1.221,2.215Zm0,0" transform="translate(1.902 2.02)" fill="#3035d1" fill-rule="evenodd"/>
</svg>
