<svg id="ic-consult-timing" xmlns="http://www.w3.org/2000/svg" width="38" height="35.413" viewBox="0 0 38 35.413">
  <path id="Caminho_43339" data-name="Caminho 43339" d="M15.155,38.425a1.376,1.376,0,0,0,.367.049,1.407,1.407,0,0,0,.364-2.767A15,15,0,1,1,34.808,21.08a1.408,1.408,0,0,0,1.407,1.394h.014a1.408,1.408,0,0,0,1.394-1.421A17.812,17.812,0,1,0,15.155,38.425Z" transform="translate(-2 -3.419)" fill="#3035d1"/>
  <path id="Caminho_43340" data-name="Caminho 43340" d="M16.237,31.111A1.407,1.407,0,0,0,17.644,29.7v-.941A5.456,5.456,0,0,0,21.7,23.506a5.348,5.348,0,0,0-.122-1.152,5.49,5.49,0,0,0-5.341-4.311,2.649,2.649,0,1,1,2.649-2.649,2.571,2.571,0,0,1-.059.558,1.408,1.408,0,0,0,2.752.6,5.393,5.393,0,0,0,.122-1.156,5.456,5.456,0,0,0-4.056-5.256V9.2a1.407,1.407,0,1,0-2.815,0v.941a5.456,5.456,0,0,0-4.056,5.256,5.452,5.452,0,0,0,5.463,5.463,2.66,2.66,0,0,1,2.589,2.09,2.582,2.582,0,0,1,.059.559,2.649,2.649,0,1,1-5.3,0,2.679,2.679,0,0,1,.059-.566,1.408,1.408,0,0,0-2.754-.583,5.54,5.54,0,0,0-.12,1.148,5.456,5.456,0,0,0,4.056,5.256V29.7a1.407,1.407,0,0,0,1.407,1.407Z" transform="translate(1.574 -1.638)" fill="#3035d1"/>
  <path id="Caminho_43341" data-name="Caminho 43341" d="M23.058,23.39a1.407,1.407,0,0,0-1.99,0L14.6,29.859a1.407,1.407,0,1,0,1.99,1.99l5.474-5.474,3.07,3.071a1.407,1.407,0,0,0,1.99,0l5-5v1.359a1.457,1.457,0,0,0,2.488,1.031h0a1.457,1.457,0,0,0,.427-1.03V21a1.457,1.457,0,0,0-1.457-1.457H28.772a1.457,1.457,0,1,0,0,2.914h1.358l-4,4Z" transform="translate(2.965 3.151)" fill="#3035d1"/>
</svg>
