<svg id="ic-offramp" xmlns="http://www.w3.org/2000/svg" width="36" height="36" viewBox="0 0 36 36">
  <path id="Caminho_43333" data-name="Caminho 43333" d="M28.6,15.676V7a1.2,1.2,0,0,0-1.2-1.2H22.6V2.2A1.2,1.2,0,0,0,21.4,1H4.6A3.611,3.611,0,0,0,1,4.6V25a3.611,3.611,0,0,0,3.6,3.6H15.676A10.8,10.8,0,1,0,28.6,15.676ZM4.6,3.4H20.2V5.8H4.6a1.2,1.2,0,1,1,0-2.4Zm7.2,22.8V21.172a1.239,1.239,0,0,0-.348-.852L8.608,17.476V15.988a1.2,1.2,0,0,0-2.4,0v1.98a1.239,1.239,0,0,0,.348.852L9.4,21.664V26.2H4.6A1.2,1.2,0,0,1,3.4,25V8a3.6,3.6,0,0,0,1.2.2H26.2v7.2A10.816,10.816,0,0,0,15.4,26.2Zm14.4,8.4a8.4,8.4,0,1,1,8.4-8.4A8.409,8.409,0,0,1,26.2,34.6Z" transform="translate(-1 -1)" fill="#3035d1"/>
  <path id="Caminho_43334" data-name="Caminho 43334" d="M23.8,17.034a1.236,1.236,0,0,0-1.992,0l-3.6,5.4a1.219,1.219,0,0,0,0,1.332l3.6,5.4a1.21,1.21,0,0,0,1,.54,1.194,1.194,0,0,0,1-.54l3.6-5.4a1.219,1.219,0,0,0,0-1.332Zm-1,9.3-2.16-3.24,2.16-3.24,2.16,3.24Z" transform="translate(2.4 2.107)" fill="#3035d1"/>
  <path id="Caminho_43335" data-name="Caminho 43335" d="M6.54,8.69a1.2,1.2,0,0,0-1.2,1.2V10.6a1.2,1.2,0,0,0,2.4,0V9.89A1.2,1.2,0,0,0,6.54,8.69Z" transform="translate(-0.133 0.539)" fill="#3035d1"/>
</svg>
