<svg id="ic-stablecoin" xmlns="http://www.w3.org/2000/svg" width="36" height="36" viewBox="0 0 36 36">
  <path id="Caminho_43330" data-name="Caminho 43330" d="M20,38A18,18,0,1,1,38,20,18,18,0,0,1,20,38ZM20,3.2A16.8,16.8,0,1,0,36.8,20,16.8,16.8,0,0,0,20,3.2Z" transform="translate(-2 -2)" fill="#3035d1"/>
  <path id="Caminho_43331" data-name="Caminho 43331" d="M21.6,37.2A15.6,15.6,0,1,1,37.2,21.6,15.6,15.6,0,0,1,21.6,37.2Zm0-30A14.4,14.4,0,1,0,36,21.6,14.4,14.4,0,0,0,21.6,7.2Z" transform="translate(-3.6 -3.6)" fill="#3035d1"/>
  <path id="Caminho_43332" data-name="Caminho 43332" d="M34.8,27.6c0-1.252-1.715-2.244-4.705-2.722a.6.6,0,0,0-.19,1.184C32.669,26.505,33.6,27.3,33.6,27.6c0,.454-1.6,1.357-4.8,1.68V22.8h3a2.4,2.4,0,1,0,0-4.8H21a2.4,2.4,0,1,0,0,4.8h3v6.48c-3.2-.323-4.8-1.226-4.8-1.68,0-.3.931-1.1,3.695-1.537a.6.6,0,0,0-.19-1.184C19.715,25.356,18,26.348,18,27.6c0,1.71,3,2.6,6,2.885V34.8a2.4,2.4,0,1,0,4.8,0V30.485C31.8,30.2,34.8,29.31,34.8,27.6ZM21,21.6a1.2,1.2,0,1,1,0-2.4H31.8a1.2,1.2,0,1,1,0,2.4H28.2a.6.6,0,0,0-.6.6v7.156a23.894,23.894,0,0,1-2.4,0V22.2a.6.6,0,0,0-.6-.6ZM26.4,36a1.2,1.2,0,0,1-1.2-1.2V30.568c.4.019.8.032,1.2.032s.8-.013,1.2-.032V34.8A1.2,1.2,0,0,1,26.4,36Z" transform="translate(-8.4 -8.398)" fill="#3035d1"/>
</svg>
