<svg id="ic-wallet" xmlns="http://www.w3.org/2000/svg" width="34" height="33.996" viewBox="0 0 34 33.996">
  <path id="Caminho_43342" data-name="Caminho 43342" d="M35.692,18.385H26.538a5.231,5.231,0,0,0,0,10.462h5.231v3.923a1.313,1.313,0,0,1-1.308,1.308H9.538a3.941,3.941,0,0,1-3.923-3.923V10.538A3.941,3.941,0,0,1,9.538,6.615h2.615a1.308,1.308,0,1,0,0-2.615H9.538A6.57,6.57,0,0,0,3,10.538V30.154a6.57,6.57,0,0,0,6.538,6.538H30.462a3.941,3.941,0,0,0,3.923-3.923V28.846h1.308A1.313,1.313,0,0,0,37,27.538V19.692A1.313,1.313,0,0,0,35.692,18.385Zm-1.308,7.846H26.538a2.615,2.615,0,0,1,0-5.231h7.846Z" transform="translate(-3 -2.696)" fill="#3035d1"/>
  <path id="Caminho_43343" data-name="Caminho 43343" d="M7.848,9.629a1.3,1.3,0,0,0,.471,2.524H29.242a1.313,1.313,0,0,1,1.308,1.308v1.308a1.308,1.308,0,0,0,2.615,0V13.461a3.929,3.929,0,0,0-3.923-3.923h-.418L26.535,3.823a1.314,1.314,0,0,0-1.687-.732ZM26,9.538H15.367l9.219-3.544Z" transform="translate(-1.779 -3.003)" fill="#3035d1"/>
</svg>
