<svg id="ico-linkedin" xmlns="http://www.w3.org/2000/svg" width="18.001" height="18" viewBox="0 0 18.001 18">
  <path id="Caminho_33" data-name="Caminho 33" d="M49.932,47.608V41.015c0-3.24-.7-5.715-4.478-5.715a3.907,3.907,0,0,0-3.532,1.935h-.045V35.593H38.3V47.608h3.735V41.645c0-1.575.292-3.083,2.228-3.083,1.912,0,1.935,1.778,1.935,3.173v5.85h3.735Z" transform="translate(-31.932 -29.607)" fill="#fff"/>
  <path id="Caminho_34" data-name="Caminho 34" d="M11.3,36.6h3.735V48.615H11.3Z" transform="translate(-11.008 -30.615)" fill="#fff"/>
  <path id="Caminho_35" data-name="Caminho 35" d="M12.16,10a2.171,2.171,0,1,0,2.16,2.16A2.161,2.161,0,0,0,12.16,10Z" transform="translate(-10 -10)" fill="#fff"/>
</svg>
